<?xml version="1.0" encoding="us-ascii" standalone="no"?><svg xmlns="http://www.w3.org/2000/svg" xmlns:xlink="http://www.w3.org/1999/xlink" contentStyleType="text/css" height="1564px" preserveAspectRatio="none" style="width:1069px;height:1564px;background:#FFFFFF;" version="1.1" viewBox="0 0 1069 1564" width="1069px" zoomAndPan="magnify"><defs/><g><!--class C_0001608703618093824988--><g id="elem_C_0001608703618093824988"><rect codeLine="2" fill="#F1F1F1" height="426.2904" id="C_0001608703618093824988" rx="2.5" ry="2.5" style="stroke:#181818;stroke-width:0.5;" width="507" x="7" y="991.71"/><ellipse cx="216.25" cy="1007.71" fill="#ADD1B2" rx="11" ry="11" style="stroke:#181818;stroke-width:1.0;"/><path d="M216.3594,1003.2413 Q215.4375,1003.2413 214.7031,1003.5538 Q213.9844,1003.8663 213.4844,1004.46 Q212.9844,1005.0381 212.7031,1005.9131 Q212.4375,1006.7881 212.4375,1007.8819 Q212.4375,1009.3194 212.875,1010.3663 Q213.3281,1011.4131 214.1719,1011.96 Q215.0313,1012.5069 216.3438,1012.5069 Q217.125,1012.5069 217.8125,1012.3819 Q218.5156,1012.2413 219.5156,1011.9288 L219.5156,1013.8038 Q218.6563,1014.1319 217.8906,1014.2569 Q217.1406,1014.3819 216.125,1014.3819 Q214.2031,1014.3819 212.8906,1013.585 Q211.5938,1012.7725 210.9375,1011.3038 Q210.2813,1009.8194 210.2813,1007.8506 Q210.2813,1006.4288 210.6719,1005.2569 Q211.0781,1004.0694 211.8594,1003.1944 Q212.6406,1002.3194 213.7813,1001.8506 Q214.9219,1001.3663 216.3906,1001.3663 Q217.3438,1001.3663 218.2344,1001.5694 Q219.1406,1001.7569 220.0781,1002.2256 L219.25,1004.0069 Q218.4688,1003.6319 217.8125,1003.4444 Q217.1563,1003.2413 216.3594,1003.2413 Z " fill="#000000"/><text fill="#000000" font-family="sans-serif" font-size="14" lengthAdjust="spacing" textLength="80" x="236.75" y="1013.142">aare::Frame</text><line style="stroke:#181818;stroke-width:0.5;" x1="8" x2="513" y1="1023.71" y2="1023.71"/><ellipse cx="18" cy="1038.744" fill="#84BE84" rx="3" ry="3" style="stroke:#038048;stroke-width:1.0;"/><text fill="#000000" font-family="sans-serif" font-size="14" lengthAdjust="spacing" textLength="385" x="27" y="1042.6759">Frame(ssize_t rows, ssize_t cols, ssize_t m_bitdepth) : void</text><ellipse cx="18" cy="1057.8119" fill="#84BE84" rx="3" ry="3" style="stroke:#038048;stroke-width:1.0;"/><text fill="#000000" font-family="sans-serif" font-size="14" lengthAdjust="spacing" textLength="481" x="27" y="1061.7439">Frame(std::byte * fp, ssize_t rows, ssize_t cols, ssize_t m_bitdepth) : void</text><ellipse cx="18" cy="1076.8798" fill="#84BE84" rx="3" ry="3" style="stroke:#038048;stroke-width:1.0;"/><text fill="#000000" font-family="sans-serif" font-size="14" lengthAdjust="spacing" textLength="196" x="27" y="1080.8118">Frame(Frame &amp;&amp; other) : void</text><ellipse cx="18" cy="1095.9477" fill="#84BE84" rx="3" ry="3" style="stroke:#038048;stroke-width:1.0;"/><text fill="#000000" font-family="sans-serif" font-size="14" lengthAdjust="spacing" textLength="226" x="27" y="1099.8797">Frame(const Frame &amp; other) : void</text><ellipse cx="18" cy="1115.0156" fill="#84BE84" rx="3" ry="3" style="stroke:#038048;stroke-width:1.0;"/><text fill="#000000" font-family="sans-serif" font-size="14" lengthAdjust="spacing" textLength="98" x="27" y="1118.9476">~Frame() : void</text><line style="stroke:#181818;stroke-width:1.0;stroke-dasharray:1.0,2.0;" x1="8" x2="513" y1="1127.0496" y2="1127.0496"/><ellipse cx="18" cy="1142.0835" fill="#84BE84" rx="3" ry="3" style="stroke:#038048;stroke-width:1.0;"/><text fill="#000000" font-family="sans-serif" font-size="14" lengthAdjust="spacing" textLength="238" x="27" y="1146.0155">operator=(Frame &amp; other) : Frame &amp;</text><line style="stroke:#181818;stroke-width:1.0;stroke-dasharray:1.0,2.0;" x1="8" x2="513" y1="1154.1175" y2="1154.1175"/><ellipse cx="18" cy="1169.1515" fill="#84BE84" rx="3" ry="3" style="stroke:#038048;stroke-width:1.0;"/><text fill="#000000" font-family="sans-serif" font-size="14" lengthAdjust="spacing" textLength="162" x="27" y="1173.0834">bitdepth() const : ssize_t</text><ellipse cx="18" cy="1188.2194" fill="#84BE84" rx="3" ry="3" style="stroke:#038048;stroke-width:1.0;"/><text fill="#000000" font-family="sans-serif" font-size="14" lengthAdjust="spacing" textLength="130" x="27" y="1192.1514">cols() const : ssize_t</text><ellipse cx="18" cy="1207.2873" fill="#84BE84" rx="3" ry="3" style="stroke:#038048;stroke-width:1.0;"/><text fill="#000000" font-family="sans-serif" font-size="14" lengthAdjust="spacing" textLength="160" x="27" y="1211.2193">data() const : std::byte *</text><ellipse cx="18" cy="1226.3552" fill="#84BE84" rx="3" ry="3" style="stroke:#038048;stroke-width:1.0;"/><text fill="#000000" font-family="sans-serif" font-size="14" lengthAdjust="spacing" textLength="208" x="27" y="1230.2872">get(int row, int col) : std::byte *</text><ellipse cx="18" cy="1245.4231" fill="#84BE84" rx="3" ry="3" style="stroke:#038048;stroke-width:1.0;"/><text fill="#000000" font-family="sans-serif" font-size="14" lengthAdjust="spacing" textLength="167" x="27" y="1249.3551">image&lt;T&gt;() : NDArray&lt;T&gt;</text><ellipse cx="18" cy="1264.491" fill="#84BE84" rx="3" ry="3" style="stroke:#038048;stroke-width:1.0;"/><text fill="#000000" font-family="sans-serif" font-size="14" lengthAdjust="spacing" textLength="136" x="27" y="1268.423">rows() const : ssize_t</text><ellipse cx="18" cy="1283.559" fill="#84BE84" rx="3" ry="3" style="stroke:#038048;stroke-width:1.0;"/><text fill="#000000" font-family="sans-serif" font-size="14" lengthAdjust="spacing" textLength="238" x="27" y="1287.4909">set&lt;T&gt;(int row, int col, T data) : void</text><ellipse cx="18" cy="1302.6269" fill="#84BE84" rx="3" ry="3" style="stroke:#038048;stroke-width:1.0;"/><text fill="#000000" font-family="sans-serif" font-size="14" lengthAdjust="spacing" textLength="130" x="27" y="1306.5589">size() const : ssize_t</text><ellipse cx="18" cy="1321.6948" fill="#84BE84" rx="3" ry="3" style="stroke:#038048;stroke-width:1.0;"/><text fill="#000000" font-family="sans-serif" font-size="14" lengthAdjust="spacing" textLength="150" x="27" y="1325.6268">view&lt;T&gt;() : NDView&lt;T&gt;</text><line style="stroke:#181818;stroke-width:0.5;" x1="8" x2="513" y1="1333.7288" y2="1333.7288"/><rect fill="none" height="6" style="stroke:#C82930;stroke-width:1.0;" width="6" x="15" y="1345.7627"/><text fill="#000000" font-family="sans-serif" font-size="14" lengthAdjust="spacing" textLength="133" x="27" y="1352.6947">m_bitdepth : ssize_t</text><rect fill="none" height="6" style="stroke:#C82930;stroke-width:1.0;" width="6" x="15" y="1364.8306"/><text fill="#000000" font-family="sans-serif" font-size="14" lengthAdjust="spacing" textLength="101" x="27" y="1371.7626">m_cols : ssize_t</text><rect fill="none" height="6" style="stroke:#C82930;stroke-width:1.0;" width="6" x="15" y="1383.8985"/><text fill="#000000" font-family="sans-serif" font-size="14" lengthAdjust="spacing" textLength="131" x="27" y="1390.8305">m_data : std::byte *</text><rect fill="none" height="6" style="stroke:#C82930;stroke-width:1.0;" width="6" x="15" y="1402.9665"/><text fill="#000000" font-family="sans-serif" font-size="14" lengthAdjust="spacing" textLength="107" x="27" y="1409.8984">m_rows : ssize_t</text></g><!--class C_0000690012646166089557--><g id="elem_C_0000690012646166089557"><rect codeLine="27" fill="#F1F1F1" height="704.3092" id="C_0000690012646166089557" rx="2.5" ry="2.5" style="stroke:#181818;stroke-width:0.5;" width="362" x="549.5" y="852.7"/><ellipse cx="667.75" cy="868.7" fill="#ADD1B2" rx="11" ry="11" style="stroke:#181818;stroke-width:1.0;"/><path d="M667.8594,864.2313 Q666.9375,864.2313 666.2031,864.5438 Q665.4844,864.8563 664.9844,865.45 Q664.4844,866.0281 664.2031,866.9031 Q663.9375,867.7781 663.9375,868.8719 Q663.9375,870.3094 664.375,871.3563 Q664.8281,872.4031 665.6719,872.95 Q666.5313,873.4969 667.8438,873.4969 Q668.625,873.4969 669.3125,873.3719 Q670.0156,873.2313 671.0156,872.9188 L671.0156,874.7938 Q670.1563,875.1219 669.3906,875.2469 Q668.6406,875.3719 667.625,875.3719 Q665.7031,875.3719 664.3906,874.575 Q663.0938,873.7625 662.4375,872.2938 Q661.7813,870.8094 661.7813,868.8406 Q661.7813,867.4188 662.1719,866.2469 Q662.5781,865.0594 663.3594,864.1844 Q664.1406,863.3094 665.2813,862.8406 Q666.4219,862.3563 667.8906,862.3563 Q668.8438,862.3563 669.7344,862.5594 Q670.6406,862.7469 671.5781,863.2156 L670.75,864.9969 Q669.9688,864.6219 669.3125,864.4344 Q668.6563,864.2313 667.8594,864.2313 Z " fill="#000000"/><text fill="#000000" font-family="sans-serif" font-size="14" lengthAdjust="spacing" textLength="117" x="688.25" y="874.132">aare::ZmqHeader</text><line style="stroke:#181818;stroke-width:0.5;" x1="550.5" x2="910.5" y1="884.7" y2="884.7"/><ellipse cx="560.5" cy="899.734" fill="#84BE84" rx="3" ry="3" style="stroke:#038048;stroke-width:1.0;"/><text fill="#000000" font-family="sans-serif" font-size="14" lengthAdjust="spacing" textLength="336" x="569.5" y="903.6659">operator==(const ZmqHeader &amp; other) const : bool</text><line style="stroke:#181818;stroke-width:1.0;stroke-dasharray:1.0,2.0;" x1="550.5" x2="910.5" y1="911.7679" y2="911.7679"/><ellipse cx="560.5" cy="926.8019" fill="#84BE84" rx="3" ry="3" style="stroke:#038048;stroke-width:1.0;"/><text fill="#000000" font-family="sans-serif" font-size="14" lengthAdjust="spacing" textLength="220" x="569.5" y="930.7339">from_string(std::string &amp; s) : void</text><ellipse cx="560.5" cy="945.8698" fill="#84BE84" rx="3" ry="3" style="stroke:#038048;stroke-width:1.0;"/><text fill="#000000" font-family="sans-serif" font-size="14" lengthAdjust="spacing" textLength="188" x="569.5" y="949.8018">to_string() const : std::string</text><line style="stroke:#181818;stroke-width:0.5;" x1="550.5" x2="910.5" y1="957.9038" y2="957.9038"/><ellipse cx="560.5" cy="972.9377" fill="none" rx="3" ry="3" style="stroke:#038048;stroke-width:1.0;"/><text fill="#000000" font-family="sans-serif" font-size="14" lengthAdjust="spacing" textLength="128" x="569.5" y="976.8697">acqIndex : uint64_t</text><ellipse cx="560.5" cy="992.0056" fill="none" rx="3" ry="3" style="stroke:#038048;stroke-width:1.0;"/><text fill="#000000" font-family="sans-serif" font-size="14" lengthAdjust="spacing" textLength="332" x="569.5" y="995.9376">addJsonHeader : std::map&lt;std::string,std::string&gt;</text><ellipse cx="560.5" cy="1011.0735" fill="none" rx="3" ry="3" style="stroke:#038048;stroke-width:1.0;"/><text fill="#000000" font-family="sans-serif" font-size="14" lengthAdjust="spacing" textLength="116" x="569.5" y="1015.0055">column : uint16_t</text><ellipse cx="560.5" cy="1030.1415" fill="none" rx="3" ry="3" style="stroke:#038048;stroke-width:1.0;"/><text fill="#000000" font-family="sans-serif" font-size="14" lengthAdjust="spacing" textLength="146" x="569.5" y="1034.0734">completeImage : bool</text><ellipse cx="560.5" cy="1049.2094" fill="none" rx="3" ry="3" style="stroke:#038048;stroke-width:1.0;"/><text fill="#000000" font-family="sans-serif" font-size="14" lengthAdjust="spacing" textLength="71" x="569.5" y="1053.1414">data : bool</text><ellipse cx="560.5" cy="1068.2773" fill="none" rx="3" ry="3" style="stroke:#038048;stroke-width:1.0;"/><text fill="#000000" font-family="sans-serif" font-size="14" lengthAdjust="spacing" textLength="128" x="569.5" y="1072.2093">detSpec1 : uint64_t</text><ellipse cx="560.5" cy="1087.3452" fill="none" rx="3" ry="3" style="stroke:#038048;stroke-width:1.0;"/><text fill="#000000" font-family="sans-serif" font-size="14" lengthAdjust="spacing" textLength="128" x="569.5" y="1091.2772">detSpec2 : uint16_t</text><ellipse cx="560.5" cy="1106.4131" fill="none" rx="3" ry="3" style="stroke:#038048;stroke-width:1.0;"/><text fill="#000000" font-family="sans-serif" font-size="14" lengthAdjust="spacing" textLength="128" x="569.5" y="1110.3451">detSpec3 : uint32_t</text><ellipse cx="560.5" cy="1125.481" fill="none" rx="3" ry="3" style="stroke:#038048;stroke-width:1.0;"/><text fill="#000000" font-family="sans-serif" font-size="14" lengthAdjust="spacing" textLength="128" x="569.5" y="1129.413">detSpec4 : uint16_t</text><ellipse cx="560.5" cy="1144.549" fill="none" rx="3" ry="3" style="stroke:#038048;stroke-width:1.0;"/><text fill="#000000" font-family="sans-serif" font-size="14" lengthAdjust="spacing" textLength="112" x="569.5" y="1148.4809">detType : uint8_t</text><ellipse cx="560.5" cy="1163.6169" fill="none" rx="3" ry="3" style="stroke:#038048;stroke-width:1.0;"/><text fill="#000000" font-family="sans-serif" font-size="14" lengthAdjust="spacing" textLength="166" x="569.5" y="1167.5489">dynamicRange : uint32_t</text><ellipse cx="560.5" cy="1182.6848" fill="none" rx="3" ry="3" style="stroke:#038048;stroke-width:1.0;"/><text fill="#000000" font-family="sans-serif" font-size="14" lengthAdjust="spacing" textLength="137" x="569.5" y="1186.6168">expLength : uint32_t</text><ellipse cx="560.5" cy="1201.7527" fill="none" rx="3" ry="3" style="stroke:#038048;stroke-width:1.0;"/><text fill="#000000" font-family="sans-serif" font-size="14" lengthAdjust="spacing" textLength="125" x="569.5" y="1205.6847">fileIndex : uint64_t</text><ellipse cx="560.5" cy="1220.8206" fill="none" rx="3" ry="3" style="stroke:#038048;stroke-width:1.0;"/><text fill="#000000" font-family="sans-serif" font-size="14" lengthAdjust="spacing" textLength="87" x="569.5" y="1224.7526">flipRows : int</text><ellipse cx="560.5" cy="1239.8885" fill="none" rx="3" ry="3" style="stroke:#038048;stroke-width:1.0;"/><text fill="#000000" font-family="sans-serif" font-size="14" lengthAdjust="spacing" textLength="124" x="569.5" y="1243.8205">fname : std::string</text><ellipse cx="560.5" cy="1258.9565" fill="none" rx="3" ry="3" style="stroke:#038048;stroke-width:1.0;"/><text fill="#000000" font-family="sans-serif" font-size="14" lengthAdjust="spacing" textLength="144" x="569.5" y="1262.8884">frameIndex : uint64_t</text><ellipse cx="560.5" cy="1278.0244" fill="none" rx="3" ry="3" style="stroke:#038048;stroke-width:1.0;"/><text fill="#000000" font-family="sans-serif" font-size="14" lengthAdjust="spacing" textLength="162" x="569.5" y="1281.9564">frameNumber : uint64_t</text><ellipse cx="560.5" cy="1297.0923" fill="none" rx="3" ry="3" style="stroke:#038048;stroke-width:1.0;"/><text fill="#000000" font-family="sans-serif" font-size="14" lengthAdjust="spacing" textLength="135" x="569.5" y="1301.0243">imageSize : uint32_t</text><ellipse cx="560.5" cy="1316.1602" fill="none" rx="3" ry="3" style="stroke:#038048;stroke-width:1.0;"/><text fill="#000000" font-family="sans-serif" font-size="14" lengthAdjust="spacing" textLength="143" x="569.5" y="1320.0922">jsonversion : uint32_t</text><ellipse cx="560.5" cy="1335.2281" fill="none" rx="3" ry="3" style="stroke:#038048;stroke-width:1.0;"/><text fill="#000000" font-family="sans-serif" font-size="14" lengthAdjust="spacing" textLength="110" x="569.5" y="1339.1601">modId : uint16_t</text><ellipse cx="560.5" cy="1354.296" fill="none" rx="3" ry="3" style="stroke:#038048;stroke-width:1.0;"/><text fill="#000000" font-family="sans-serif" font-size="14" lengthAdjust="spacing" textLength="104" x="569.5" y="1358.228">ndetx : uint32_t</text><ellipse cx="560.5" cy="1373.364" fill="none" rx="3" ry="3" style="stroke:#038048;stroke-width:1.0;"/><text fill="#000000" font-family="sans-serif" font-size="14" lengthAdjust="spacing" textLength="104" x="569.5" y="1377.2959">ndety : uint32_t</text><ellipse cx="560.5" cy="1392.4319" fill="none" rx="3" ry="3" style="stroke:#038048;stroke-width:1.0;"/><text fill="#000000" font-family="sans-serif" font-size="14" lengthAdjust="spacing" textLength="121" x="569.5" y="1396.3639">npixelsx : uint32_t</text><ellipse cx="560.5" cy="1411.4998" fill="none" rx="3" ry="3" style="stroke:#038048;stroke-width:1.0;"/><text fill="#000000" font-family="sans-serif" font-size="14" lengthAdjust="spacing" textLength="121" x="569.5" y="1415.4318">npixelsy : uint32_t</text><ellipse cx="560.5" cy="1430.5677" fill="none" rx="3" ry="3" style="stroke:#038048;stroke-width:1.0;"/><text fill="#000000" font-family="sans-serif" font-size="14" lengthAdjust="spacing" textLength="166" x="569.5" y="1434.4997">packetNumber : uint32_t</text><ellipse cx="560.5" cy="1449.6356" fill="none" rx="3" ry="3" style="stroke:#038048;stroke-width:1.0;"/><text fill="#000000" font-family="sans-serif" font-size="14" lengthAdjust="spacing" textLength="119" x="569.5" y="1453.5676">progress : double</text><ellipse cx="560.5" cy="1468.7035" fill="none" rx="3" ry="3" style="stroke:#038048;stroke-width:1.0;"/><text fill="#000000" font-family="sans-serif" font-size="14" lengthAdjust="spacing" textLength="101" x="569.5" y="1472.6355">quad : uint32_t</text><ellipse cx="560.5" cy="1487.7715" fill="none" rx="3" ry="3" style="stroke:#038048;stroke-width:1.0;"/><text fill="#000000" font-family="sans-serif" font-size="14" lengthAdjust="spacing" textLength="91" x="569.5" y="1491.7034">row : uint16_t</text><ellipse cx="560.5" cy="1506.8394" fill="none" rx="3" ry="3" style="stroke:#038048;stroke-width:1.0;"/><text fill="#000000" font-family="sans-serif" font-size="14" lengthAdjust="spacing" textLength="159" x="569.5" y="1510.7714">rx_roi : std::array&lt;int,4&gt;</text><ellipse cx="560.5" cy="1525.9073" fill="none" rx="3" ry="3" style="stroke:#038048;stroke-width:1.0;"/><text fill="#000000" font-family="sans-serif" font-size="14" lengthAdjust="spacing" textLength="138" x="569.5" y="1529.8393">timestamp : uint64_t</text><ellipse cx="560.5" cy="1544.9752" fill="none" rx="3" ry="3" style="stroke:#038048;stroke-width:1.0;"/><text fill="#000000" font-family="sans-serif" font-size="14" lengthAdjust="spacing" textLength="107" x="569.5" y="1548.9072">version : uint8_t</text></g><!--class C_0000575290120620432482--><g id="elem_C_0000575290120620432482"><rect codeLine="66" fill="#F1F1F1" height="388.1546" id="C_0000575290120620432482" rx="2.5" ry="2.5" style="stroke:#181818;stroke-width:0.5;" width="379" x="342" y="7"/><ellipse cx="471.75" cy="23" fill="#ADD1B2" rx="11" ry="11" style="stroke:#181818;stroke-width:1.0;"/><path d="M471.8594,18.5313 Q470.9375,18.5313 470.2031,18.8438 Q469.4844,19.1563 468.9844,19.75 Q468.4844,20.3281 468.2031,21.2031 Q467.9375,22.0781 467.9375,23.1719 Q467.9375,24.6094 468.375,25.6563 Q468.8281,26.7031 469.6719,27.25 Q470.5313,27.7969 471.8438,27.7969 Q472.625,27.7969 473.3125,27.6719 Q474.0156,27.5313 475.0156,27.2188 L475.0156,29.0938 Q474.1563,29.4219 473.3906,29.5469 Q472.6406,29.6719 471.625,29.6719 Q469.7031,29.6719 468.3906,28.875 Q467.0938,28.0625 466.4375,26.5938 Q465.7813,25.1094 465.7813,23.1406 Q465.7813,21.7188 466.1719,20.5469 Q466.5781,19.3594 467.3594,18.4844 Q468.1406,17.6094 469.2813,17.1406 Q470.4219,16.6563 471.8906,16.6563 Q472.8438,16.6563 473.7344,16.8594 Q474.6406,17.0469 475.5781,17.5156 L474.75,19.2969 Q473.9688,18.9219 473.3125,18.7344 Q472.6563,18.5313 471.8594,18.5313 Z " fill="#000000"/><text fill="#000000" font-family="sans-serif" font-size="14" lengthAdjust="spacing" textLength="111" x="492.25" y="28.432">aare::ZmqSocket</text><line style="stroke:#181818;stroke-width:0.5;" x1="343" x2="720" y1="39" y2="39"/><ellipse cx="353" cy="54.034" fill="#84BE84" rx="3" ry="3" style="stroke:#038048;stroke-width:1.0;"/><text fill="#000000" font-family="sans-serif" font-size="14" lengthAdjust="spacing" textLength="185" x="362" y="57.9659">ZmqSocket() = default : void</text><ellipse cx="353" cy="73.1019" fill="#84BE84" rx="3" ry="3" style="stroke:#038048;stroke-width:1.0;"/><text fill="#000000" font-family="sans-serif" font-size="14" lengthAdjust="spacing" textLength="315" x="362" y="77.0339">ZmqSocket(const ZmqSocket &amp;) = deleted : void</text><ellipse cx="353" cy="92.1698" fill="#84BE84" rx="3" ry="3" style="stroke:#038048;stroke-width:1.0;"/><text fill="#000000" font-family="sans-serif" font-size="14" lengthAdjust="spacing" textLength="285" x="362" y="96.1018">ZmqSocket(ZmqSocket &amp;&amp;) = deleted : void</text><ellipse cx="353" cy="111.2377" fill="#84BE84" rx="3" ry="3" style="stroke:#038048;stroke-width:1.0;"/><text fill="#000000" font-family="sans-serif" font-size="14" lengthAdjust="spacing" textLength="129" x="362" y="115.1697">~ZmqSocket() : void</text><line style="stroke:#181818;stroke-width:1.0;stroke-dasharray:1.0,2.0;" x1="343" x2="720" y1="123.2717" y2="123.2717"/><ellipse cx="353" cy="138.3056" fill="#84BE84" rx="3" ry="3" style="stroke:#038048;stroke-width:1.0;"/><text fill="#000000" font-family="sans-serif" font-size="14" lengthAdjust="spacing" textLength="353" x="362" y="142.2376">operator=(const ZmqSocket &amp;) = deleted : ZmqSocket</text><line style="stroke:#181818;stroke-width:1.0;stroke-dasharray:1.0,2.0;" x1="343" x2="720" y1="150.3396" y2="150.3396"/><ellipse cx="353" cy="165.3735" fill="#84BE84" rx="3" ry="3" style="stroke:#038048;stroke-width:1.0;"/><text fill="#000000" font-family="sans-serif" font-size="14" lengthAdjust="spacing" textLength="121" x="362" y="169.3055">disconnect() : void</text><ellipse cx="353" cy="184.4415" fill="#84BE84" rx="3" ry="3" style="stroke:#038048;stroke-width:1.0;"/><text fill="#000000" font-family="sans-serif" font-size="14" lengthAdjust="spacing" textLength="279" x="362" y="188.3734">set_potential_frame_size(size_t size) : void</text><ellipse cx="353" cy="203.5094" fill="#84BE84" rx="3" ry="3" style="stroke:#038048;stroke-width:1.0;"/><text fill="#000000" font-family="sans-serif" font-size="14" lengthAdjust="spacing" textLength="183" x="362" y="207.4414">set_timeout_ms(int n) : void</text><ellipse cx="353" cy="222.5773" fill="#84BE84" rx="3" ry="3" style="stroke:#038048;stroke-width:1.0;"/><text fill="#000000" font-family="sans-serif" font-size="14" lengthAdjust="spacing" textLength="197" x="362" y="226.5093">set_zmq_hwm(int hwm) : void</text><line style="stroke:#181818;stroke-width:0.5;" x1="343" x2="720" y1="234.6113" y2="234.6113"/><polygon fill="none" points="353,244.6452,357,248.6452,353,252.6452,349,248.6452" style="stroke:#B38D22;stroke-width:1.0;"/><text fill="#000000" font-family="sans-serif" font-size="14" lengthAdjust="spacing" textLength="120" x="362" y="253.5772">m_context : void *</text><polygon fill="none" points="353,263.7131,357,267.7131,353,271.7131,349,267.7131" style="stroke:#B38D22;stroke-width:1.0;"/><text fill="#000000" font-family="sans-serif" font-size="14" lengthAdjust="spacing" textLength="161" x="362" y="272.6451">m_endpoint : std::string</text><polygon fill="none" points="353,282.781,357,286.781,353,290.781,349,286.781" style="stroke:#B38D22;stroke-width:1.0;"/><text fill="#000000" font-family="sans-serif" font-size="14" lengthAdjust="spacing" textLength="169" x="362" y="291.713">m_header_buffer : char *</text><polygon fill="none" points="353,301.849,357,305.849,353,309.849,349,305.849" style="stroke:#B38D22;stroke-width:1.0;"/><text fill="#000000" font-family="sans-serif" font-size="14" lengthAdjust="spacing" text-decoration="underline" textLength="222" x="362" y="310.7809">m_max_header_size : const size_t</text><polygon fill="none" points="353,320.9169,357,324.9169,353,328.9169,349,324.9169" style="stroke:#B38D22;stroke-width:1.0;"/><text fill="#000000" font-family="sans-serif" font-size="14" lengthAdjust="spacing" textLength="206" x="362" y="329.8489">m_potential_frame_size : size_t</text><polygon fill="none" points="353,339.9848,357,343.9848,353,347.9848,349,343.9848" style="stroke:#B38D22;stroke-width:1.0;"/><text fill="#000000" font-family="sans-serif" font-size="14" lengthAdjust="spacing" textLength="113" x="362" y="348.9168">m_socket : void *</text><polygon fill="none" points="353,359.0527,357,363.0527,353,367.0527,349,363.0527" style="stroke:#B38D22;stroke-width:1.0;"/><text fill="#000000" font-family="sans-serif" font-size="14" lengthAdjust="spacing" textLength="127" x="362" y="367.9847">m_timeout_ms : int</text><polygon fill="none" points="353,378.1206,357,382.1206,353,386.1206,349,382.1206" style="stroke:#B38D22;stroke-width:1.0;"/><text fill="#000000" font-family="sans-serif" font-size="14" lengthAdjust="spacing" textLength="117" x="362" y="387.0526">m_zmq_hwm : int</text></g><!--class C_0001018278375791869829--><g id="elem_C_0001018278375791869829"><rect codeLine="89" fill="#F1F1F1" height="86.1358" id="C_0001018278375791869829" rx="2.5" ry="2.5" style="stroke:#181818;stroke-width:0.5;" width="165" x="244" y="687.56"/><ellipse cx="269.35" cy="703.56" fill="#ADD1B2" rx="11" ry="11" style="stroke:#181818;stroke-width:1.0;"/><path d="M269.4594,699.0913 Q268.5375,699.0913 267.8031,699.4038 Q267.0844,699.7163 266.5844,700.31 Q266.0844,700.8881 265.8031,701.7631 Q265.5375,702.6381 265.5375,703.7319 Q265.5375,705.1694 265.975,706.2163 Q266.4281,707.2631 267.2719,707.81 Q268.1313,708.3569 269.4438,708.3569 Q270.225,708.3569 270.9125,708.2319 Q271.6156,708.0913 272.6156,707.7788 L272.6156,709.6538 Q271.7563,709.9819 270.9906,710.1069 Q270.2406,710.2319 269.225,710.2319 Q267.3031,710.2319 265.9906,709.435 Q264.6938,708.6225 264.0375,707.1538 Q263.3813,705.6694 263.3813,703.7006 Q263.3813,702.2788 263.7719,701.1069 Q264.1781,699.9194 264.9594,699.0444 Q265.7406,698.1694 266.8813,697.7006 Q268.0219,697.2163 269.4906,697.2163 Q270.4438,697.2163 271.3344,697.4194 Q272.2406,697.6069 273.1781,698.0756 L272.35,699.8569 Q271.5688,699.4819 270.9125,699.2944 Q270.2563,699.0913 269.4594,699.0913 Z " fill="#000000"/><text fill="#000000" font-family="sans-serif" font-size="14" lengthAdjust="spacing" textLength="110" x="285.65" y="708.992">aare::ZmqFrame</text><line style="stroke:#181818;stroke-width:0.5;" x1="245" x2="408" y1="719.56" y2="719.56"/><line style="stroke:#181818;stroke-width:0.5;" x1="245" x2="408" y1="727.56" y2="727.56"/><ellipse cx="255" cy="742.594" fill="none" rx="3" ry="3" style="stroke:#038048;stroke-width:1.0;"/><text fill="#000000" font-family="sans-serif" font-size="14" lengthAdjust="spacing" textLength="94" x="264" y="746.5259">frame : Frame</text><ellipse cx="255" cy="761.6619" fill="none" rx="3" ry="3" style="stroke:#038048;stroke-width:1.0;"/><text fill="#000000" font-family="sans-serif" font-size="14" lengthAdjust="spacing" textLength="139" x="264" y="765.5939">header : ZmqHeader</text></g><!--class C_0001290043041844945927--><g id="elem_C_0001290043041844945927"><rect codeLine="95" fill="#F1F1F1" height="132.2717" id="C_0001290043041844945927" rx="2.5" ry="2.5" style="stroke:#181818;stroke-width:0.5;" width="306" x="756.5" y="134.94"/><ellipse cx="801.25" cy="150.94" fill="#ADD1B2" rx="11" ry="11" style="stroke:#181818;stroke-width:1.0;"/><path d="M801.3594,146.4713 Q800.4375,146.4713 799.7031,146.7838 Q798.9844,147.0963 798.4844,147.69 Q797.9844,148.2681 797.7031,149.1431 Q797.4375,150.0181 797.4375,151.1119 Q797.4375,152.5494 797.875,153.5963 Q798.3281,154.6431 799.1719,155.19 Q800.0313,155.7369 801.3438,155.7369 Q802.125,155.7369 802.8125,155.6119 Q803.5156,155.4713 804.5156,155.1588 L804.5156,157.0338 Q803.6563,157.3619 802.8906,157.4869 Q802.1406,157.6119 801.125,157.6119 Q799.2031,157.6119 797.8906,156.815 Q796.5938,156.0025 795.9375,154.5338 Q795.2813,153.0494 795.2813,151.0806 Q795.2813,149.6588 795.6719,148.4869 Q796.0781,147.2994 796.8594,146.4244 Q797.6406,145.5494 798.7813,145.0806 Q799.9219,144.5963 801.3906,144.5963 Q802.3438,144.5963 803.2344,144.7994 Q804.1406,144.9869 805.0781,145.4556 L804.25,147.2369 Q803.4688,146.8619 802.8125,146.6744 Q802.1563,146.4713 801.3594,146.4713 Z " fill="#000000"/><text fill="#000000" font-family="sans-serif" font-size="14" lengthAdjust="spacing" textLength="208" x="821.75" y="156.372">aare::network_io::NetworkError</text><line style="stroke:#181818;stroke-width:0.5;" x1="757.5" x2="1061.5" y1="166.94" y2="166.94"/><ellipse cx="767.5" cy="181.974" fill="#84BE84" rx="3" ry="3" style="stroke:#038048;stroke-width:1.0;"/><text fill="#000000" font-family="sans-serif" font-size="14" lengthAdjust="spacing" textLength="253" x="776.5" y="185.9059">NetworkError(const char * msg) : void</text><ellipse cx="767.5" cy="201.0419" fill="#84BE84" rx="3" ry="3" style="stroke:#038048;stroke-width:1.0;"/><text fill="#000000" font-family="sans-serif" font-size="14" lengthAdjust="spacing" textLength="280" x="776.5" y="204.9739">NetworkError(const std::string msg) : void</text><line style="stroke:#181818;stroke-width:1.0;stroke-dasharray:1.0,2.0;" x1="757.5" x2="1061.5" y1="213.0758" y2="213.0758"/><ellipse cx="767.5" cy="228.1098" fill="#84BE84" rx="3" ry="3" style="stroke:#038048;stroke-width:1.0;"/><text fill="#000000" font-family="sans-serif" font-size="14" lengthAdjust="spacing" textLength="240" x="776.5" y="232.0418">what() const noexcept : const char *</text><line style="stroke:#181818;stroke-width:0.5;" x1="757.5" x2="1061.5" y1="240.1438" y2="240.1438"/><rect fill="none" height="6" style="stroke:#C82930;stroke-width:1.0;" width="6" x="764.5" y="252.1777"/><text fill="#000000" font-family="sans-serif" font-size="14" lengthAdjust="spacing" textLength="142" x="776.5" y="259.1097">m_msg : const char *</text></g><!--class C_0001017868003595712218--><g id="elem_C_0001017868003595712218"><rect codeLine="104" fill="#F1F1F1" height="170.4075" id="C_0001017868003595712218" rx="2.5" ry="2.5" style="stroke:#181818;stroke-width:0.5;" width="392" x="583.5" y="456.16"/><ellipse cx="691.25" cy="472.16" fill="#ADD1B2" rx="11" ry="11" style="stroke:#181818;stroke-width:1.0;"/><path d="M691.3594,467.6913 Q690.4375,467.6913 689.7031,468.0038 Q688.9844,468.3163 688.4844,468.91 Q687.9844,469.4881 687.7031,470.3631 Q687.4375,471.2381 687.4375,472.3319 Q687.4375,473.7694 687.875,474.8163 Q688.3281,475.8631 689.1719,476.41 Q690.0313,476.9569 691.3438,476.9569 Q692.125,476.9569 692.8125,476.8319 Q693.5156,476.6913 694.5156,476.3788 L694.5156,478.2538 Q693.6563,478.5819 692.8906,478.7069 Q692.1406,478.8319 691.125,478.8319 Q689.2031,478.8319 687.8906,478.035 Q686.5938,477.2225 685.9375,475.7538 Q685.2813,474.2694 685.2813,472.3006 Q685.2813,470.8788 685.6719,469.7069 Q686.0781,468.5194 686.8594,467.6444 Q687.6406,466.7694 688.7813,466.3006 Q689.9219,465.8163 691.3906,465.8163 Q692.3438,465.8163 693.2344,466.0194 Q694.1406,466.2069 695.0781,466.6756 L694.25,468.4569 Q693.4688,468.0819 692.8125,467.8944 Q692.1563,467.6913 691.3594,467.6913 Z " fill="#000000"/><text fill="#000000" font-family="sans-serif" font-size="14" lengthAdjust="spacing" textLength="168" x="711.75" y="477.592">aare::ZmqSocketReceiver</text><line style="stroke:#181818;stroke-width:0.5;" x1="584.5" x2="974.5" y1="488.16" y2="488.16"/><ellipse cx="594.5" cy="503.194" fill="#84BE84" rx="3" ry="3" style="stroke:#038048;stroke-width:1.0;"/><text fill="#000000" font-family="sans-serif" font-size="14" lengthAdjust="spacing" textLength="366" x="603.5" y="507.1259">ZmqSocketReceiver(const std::string &amp; endpoint) : void</text><line style="stroke:#181818;stroke-width:1.0;stroke-dasharray:1.0,2.0;" x1="584.5" x2="974.5" y1="515.2279" y2="515.2279"/><ellipse cx="594.5" cy="530.2619" fill="#84BE84" rx="3" ry="3" style="stroke:#038048;stroke-width:1.0;"/><text fill="#000000" font-family="sans-serif" font-size="14" lengthAdjust="spacing" textLength="101" x="603.5" y="534.1939">connect() : void</text><rect fill="#F24D5C" height="6" style="stroke:#C82930;stroke-width:1.0;" width="6" x="591.5" y="546.3298"/><text fill="#000000" font-family="sans-serif" font-size="14" lengthAdjust="spacing" textLength="301" x="603.5" y="553.2618">receive_data(std::byte * data, size_t size) : int</text><rect fill="#F24D5C" height="6" style="stroke:#C82930;stroke-width:1.0;" width="6" x="591.5" y="565.3977"/><text fill="#000000" font-family="sans-serif" font-size="14" lengthAdjust="spacing" textLength="201" x="603.5" y="572.3297">receive_header() : ZmqHeader</text><ellipse cx="594.5" cy="587.4656" fill="#84BE84" rx="3" ry="3" style="stroke:#038048;stroke-width:1.0;"/><text fill="#000000" font-family="sans-serif" font-size="14" lengthAdjust="spacing" textLength="241" x="603.5" y="591.3976">receive_n() : std::vector&lt;ZmqFrame&gt;</text><rect fill="#F24D5C" height="6" style="stroke:#C82930;stroke-width:1.0;" width="6" x="591.5" y="603.5335"/><text fill="#000000" font-family="sans-serif" font-size="14" lengthAdjust="spacing" textLength="215" x="603.5" y="610.4655">receive_zmqframe() : ZmqFrame</text><line style="stroke:#181818;stroke-width:0.5;" x1="584.5" x2="974.5" y1="618.5675" y2="618.5675"/></g><!--class C_0002178845803227443176--><g id="elem_C_0002178845803227443176"><rect codeLine="115" fill="#F1F1F1" height="151.3396" id="C_0002178845803227443176" rx="2.5" ry="2.5" style="stroke:#181818;stroke-width:0.5;" width="528" x="20.5" y="465.69"/><ellipse cx="200.75" cy="481.69" fill="#ADD1B2" rx="11" ry="11" style="stroke:#181818;stroke-width:1.0;"/><path d="M200.8594,477.2213 Q199.9375,477.2213 199.2031,477.5338 Q198.4844,477.8463 197.9844,478.44 Q197.4844,479.0181 197.2031,479.8931 Q196.9375,480.7681 196.9375,481.8619 Q196.9375,483.2994 197.375,484.3463 Q197.8281,485.3931 198.6719,485.94 Q199.5313,486.4869 200.8438,486.4869 Q201.625,486.4869 202.3125,486.3619 Q203.0156,486.2213 204.0156,485.9088 L204.0156,487.7838 Q203.1563,488.1119 202.3906,488.2369 Q201.6406,488.3619 200.625,488.3619 Q198.7031,488.3619 197.3906,487.565 Q196.0938,486.7525 195.4375,485.2838 Q194.7813,483.7994 194.7813,481.8306 Q194.7813,480.4088 195.1719,479.2369 Q195.5781,478.0494 196.3594,477.1744 Q197.1406,476.2994 198.2813,475.8306 Q199.4219,475.3463 200.8906,475.3463 Q201.8438,475.3463 202.7344,475.5494 Q203.6406,475.7369 204.5781,476.2056 L203.75,477.9869 Q202.9688,477.6119 202.3125,477.4244 Q201.6563,477.2213 200.8594,477.2213 Z " fill="#000000"/><text fill="#000000" font-family="sans-serif" font-size="14" lengthAdjust="spacing" textLength="159" x="221.25" y="487.122">aare::ZmqSocketSender</text><line style="stroke:#181818;stroke-width:0.5;" x1="21.5" x2="547.5" y1="497.69" y2="497.69"/><ellipse cx="31.5" cy="512.724" fill="#84BE84" rx="3" ry="3" style="stroke:#038048;stroke-width:1.0;"/><text fill="#000000" font-family="sans-serif" font-size="14" lengthAdjust="spacing" textLength="357" x="40.5" y="516.6559">ZmqSocketSender(const std::string &amp; endpoint) : void</text><line style="stroke:#181818;stroke-width:1.0;stroke-dasharray:1.0,2.0;" x1="21.5" x2="547.5" y1="524.7579" y2="524.7579"/><ellipse cx="31.5" cy="539.7919" fill="#84BE84" rx="3" ry="3" style="stroke:#038048;stroke-width:1.0;"/><text fill="#000000" font-family="sans-serif" font-size="14" lengthAdjust="spacing" textLength="79" x="40.5" y="543.7239">bind() : void</text><ellipse cx="31.5" cy="558.8598" fill="#84BE84" rx="3" ry="3" style="stroke:#038048;stroke-width:1.0;"/><text fill="#000000" font-family="sans-serif" font-size="14" lengthAdjust="spacing" textLength="502" x="40.5" y="562.7918">send(const ZmqHeader &amp; header, const std::byte * data, size_t size) : size_t</text><ellipse cx="31.5" cy="577.9277" fill="#84BE84" rx="3" ry="3" style="stroke:#038048;stroke-width:1.0;"/><text fill="#000000" font-family="sans-serif" font-size="14" lengthAdjust="spacing" textLength="295" x="40.5" y="581.8597">send(const ZmqFrame &amp; zmq_frame) : size_t</text><ellipse cx="31.5" cy="596.9956" fill="#84BE84" rx="3" ry="3" style="stroke:#038048;stroke-width:1.0;"/><text fill="#000000" font-family="sans-serif" font-size="14" lengthAdjust="spacing" textLength="388" x="40.5" y="600.9276">send(const std::vector&lt;ZmqFrame&gt; &amp; zmq_frames) : size_t</text><line style="stroke:#181818;stroke-width:0.5;" x1="21.5" x2="547.5" y1="609.0296" y2="609.0296"/></g><!--reverse link C_0001018278375791869829 to C_0000690012646166089557--><g id="link_C_0001018278375791869829_C_0000690012646166089557"><path codeLine="124" d="M374.0446,782.2336 C391.8446,799.4536 405.45,809.93 428.5,822.7 C470.2,845.82 494.11,823.12 531.5,852.7 C537.55,857.48 543.44,862.5 549.18,867.73 " fill="none" id="C_0001018278375791869829-backto-C_0000690012646166089557" style="stroke:#181818;stroke-width:1.0;"/><polygon fill="none" points="365.42,773.89,366.9511,780.9367,374.0446,782.2336,372.5135,775.1869,365.42,773.89" style="stroke:#181818;stroke-width:1.0;"/><ellipse cx="434.5" cy="814.053" fill="none" rx="3" ry="3" style="stroke:#038048;stroke-width:1.0;"/><text fill="#000000" font-family="sans-serif" font-size="13" lengthAdjust="spacing" textLength="42" x="441.5" y="818.597">header</text></g><!--reverse link C_0001018278375791869829 to C_0001608703618093824988--><g id="link_C_0001018278375791869829_C_0001608703618093824988"><path codeLine="125" d="M315.5747,785.6342 C313.6947,795.4142 314.07,794.01 312.5,803.7 C302.66,864.47 293.45,930.67 285.59,991.41 " fill="none" id="C_0001018278375791869829-backto-C_0001608703618093824988" style="stroke:#181818;stroke-width:1.0;"/><polygon fill="none" points="317.84,773.85,312.7793,778.987,315.5747,785.6342,320.6354,780.4972,317.84,773.85" style="stroke:#181818;stroke-width:1.0;"/><ellipse cx="318.5" cy="814.053" fill="none" rx="3" ry="3" style="stroke:#038048;stroke-width:1.0;"/><text fill="#000000" font-family="sans-serif" font-size="13" lengthAdjust="spacing" textLength="35" x="325.5" y="818.597">frame</text></g><!--link C_0001017868003595712218 to C_0001018278375791869829--><g id="link_C_0001017868003595712218_C_0001018278375791869829"><path codeLine="126" d="M583.11,623.55 C522.06,648.79 463.5846,672.957 414.7646,693.147 " fill="none" id="C_0001017868003595712218-to-C_0001018278375791869829" style="stroke:#181818;stroke-width:1.0;stroke-dasharray:7.0,7.0;"/><polygon fill="#181818" points="409.22,695.44,419.0655,695.6969,413.8405,693.5292,416.0082,688.3041,409.22,695.44" style="stroke:#181818;stroke-width:1.0;"/></g><!--link C_0001017868003595712218 to C_0000690012646166089557--><g id="link_C_0001017868003595712218_C_0000690012646166089557"><path codeLine="127" d="M773.24,626.81 C768.9,685.5 763.2233,762.0764 756.9733,846.4364 " fill="none" id="C_0001017868003595712218-to-C_0000690012646166089557" style="stroke:#181818;stroke-width:1.0;stroke-dasharray:7.0,7.0;"/><polygon fill="#181818" points="756.53,852.42,761.184,843.7401,756.8994,847.4337,753.2059,843.1491,756.53,852.42" style="stroke:#181818;stroke-width:1.0;"/></g><!--reverse link C_0000575290120620432482 to C_0001017868003595712218--><g id="link_C_0000575290120620432482_C_0001017868003595712218"><path codeLine="128" d="M683.8913,409.9477 C699.4013,431.1077 703.9,437.24 717.66,456.01 " fill="none" id="C_0000575290120620432482-backto-C_0001017868003595712218" style="stroke:#181818;stroke-width:1.0;"/><polygon fill="none" points="673.25,395.43,679.052,413.4948,688.7305,406.4006,673.25,395.43" style="stroke:#181818;stroke-width:1.0;"/></g><!--link C_0002178845803227443176 to C_0000690012646166089557--><g id="link_C_0002178845803227443176_C_0000690012646166089557"><path codeLine="129" d="M363.53,617.22 C384.94,639.06 407.44,663.53 426.5,687.56 C469.87,742.28 508.2471,798.6952 545.9171,859.6852 " fill="none" id="C_0002178845803227443176-to-C_0000690012646166089557" style="stroke:#181818;stroke-width:1.0;stroke-dasharray:7.0,7.0;"/><polygon fill="#181818" points="549.07,864.79,547.7438,855.0308,546.4426,860.536,540.9374,859.2348,549.07,864.79" style="stroke:#181818;stroke-width:1.0;"/></g><!--link C_0002178845803227443176 to C_0001018278375791869829--><g id="link_C_0002178845803227443176_C_0001018278375791869829"><path codeLine="130" d="M301.34,617.45 C306.66,641.16 311.0376,660.6653 315.6576,681.2753 " fill="none" id="C_0002178845803227443176-to-C_0001018278375791869829" style="stroke:#181818;stroke-width:1.0;stroke-dasharray:7.0,7.0;"/><polygon fill="#181818" points="316.97,687.13,318.9045,677.473,315.8763,682.2511,311.0982,679.2229,316.97,687.13" style="stroke:#181818;stroke-width:1.0;"/></g><!--reverse link C_0000575290120620432482 to C_0002178845803227443176--><g id="link_C_0000575290120620432482_C_0002178845803227443176"><path codeLine="131" d="M379.7125,409.9651 C361.6625,434.6751 354.75,444.16 339.31,465.29 " fill="none" id="C_0000575290120620432482-backto-C_0002178845803227443176" style="stroke:#181818;stroke-width:1.0;"/><polygon fill="none" points="390.33,395.43,374.8675,406.4259,384.5575,413.5043,390.33,395.43" style="stroke:#181818;stroke-width:1.0;"/></g><!--SRC=[dLVVSwCs47xdhz1SPt99_MC0OmoU93ETjdTD9yr3ahc7lZ0oo3Oz8n6GO-UkTtzxLqA0X26vwKk2ThzThJvzAydn3fSbUeTnGPRB3mNEo3k4I_HhPDksuzl1mfxvJc27iy3rmY2mOeaVSgElraWcEI_Bz0k9E2hOeHoZUXIpdJRAebNA4vBpxGLQecUM9aqqJvRBrGidw6Uqpjk8_vTD_aLdPuZnBIcwtfZHaYE5wKA-LvZ6C9rQ8vQJ0dDMN9sV12c3XDNLG70rnR8krHg9olli2UPOjxSqMACDuUSfbHoCaVY091TTK9hX3Rbyl9OLt_tsIr7W5nXQ8y5StumbuGBUJJn6ZqWKqp8X0leIFAVaq4xugHfPKMHDsWtHy60LYpSjOgREIi0gIjPmtvJsb5R_pfx-83WXHQjNsmz1bQxl-OuFsWpdyuMkrnwtq6kpdLTA2atcTcVhLQyOsydDNHSiYqfUf7HJYRNwXeYofOop6jBPqiegI1hX-Ec69kG8hZrmxtk2KvmaVvQCgYfKK8RpIorwh7rVIqNjCwgoE7ubiYpV4KvkX2RguaUAQpKW_24diMFCheokaKmPPyeuSpMZrqK-lkH4sG9fUg4uI-DxJ3V4I42E-IsX6wcGrhfET-IKbFKkpUyhIO0DnbJqciaex0iOUsA5-MwVhIIThLssomFeovZ_7-3-cHHbogXXprXoanXhXOduqS08oujfoTCZsPN7FgE9p77ycN2ZJEKesAOWfLXwmlQh7R56JtkS61Ze5gEquWWDbDRyO7aGW7FiWLXucf6Iuomto32N7FIst0CJ9MejDr_CtH2wolPTsvkvNk0QBNVg5YtN98B6k489MUFzZZTjqtgRVgp6wAo22r4dFN0Ds8lyhi_RUw2_CM7Za659MWAUabXB9yxJA6USK9xYNIHr5ycZKzrIuf-95fl1zZpAIdaAKzFx9NkAjeTCkk1_uuIpuoTnb59EZZLrS6o2ZT0aPm9kjWPujl8yYLRxzLeABDxY0cA-WXHu6dz30CdmiOQLLLjKbAWp611zYnDJDO2oeaulgLsYQbwmgOKfmwdIkcyHsmdSHJ1Rp1UX4_XXu8R6M-JK3K8J1woiihwQhT6sFbERKxuxDoNym8hFKSgMoxlg-_UYODezuu2aGSssvmIU5thpq3NkcHwt4BsUImcjsW2KbPjsqtjW-WMZOuK83rlCc-k5CdACuS9jjatjS7KRGsZNCTJWzoGcwRD-jmB1Yy0FR7is3-SBntMTeCD_rsqqUfsmPqLdg5QiiR2JrfeKLGxvMZ1UYC8mHfq64wfgGgfTbxdQVH_LNdhUlAEUOKfMNDRwksvJW5xNpLkmzWjcXpXyW6Nf3Bh0KE3D0tlckWlFcpaBNsUmnsqmMANxSVvMAKsCSmc6f- -RYfWnqjA-HchxQjIprSzWqTAIem5eByDwNAa5IcO7UvjD9iEFkYLIRVu3yNq_OY1UbcCDIdiwlHu-bjwEwdke3jwNb_ysjVRquA1stfxirQZ1XRrUOf_8hVSV2HKtBDoXXnJUUg1wkfdiC_YLKRyvxEbywbZlRsy__TNO9AmPEOkfFVNH-GUIi0AhuSIThkDPUF4V]--></g></svg>